<?xml version="1.0" encoding="UTF-8" standalone="no"?>
<!-- Generator: Adobe Illustrator 23.0.0, SVG Export Plug-In . SVG Version: 6.00 Build 0)  -->

<svg
   xmlns:dc="http://purl.org/dc/elements/1.1/"
   xmlns:cc="http://creativecommons.org/ns#"
   xmlns:rdf="http://www.w3.org/1999/02/22-rdf-syntax-ns#"
   xmlns:svg="http://www.w3.org/2000/svg"
   xmlns="http://www.w3.org/2000/svg"
   xmlns:sodipodi="http://sodipodi.sourceforge.net/DTD/sodipodi-0.dtd"
   xmlns:inkscape="http://www.inkscape.org/namespaces/inkscape"
   version="1.1"
   id="Layer_1"
   x="0px"
   y="0px"
   viewBox="0 0 134.33044 300"
   xml:space="preserve"
   sodipodi:docname="devjoybaloon.svg"
   inkscape:version="0.92.3 (2405546, 2018-03-11)"
   width="134.33044"
   height="300"><metadata
   id="metadata40"><rdf:RDF><cc:Work
       rdf:about=""><dc:format>image/svg+xml</dc:format><dc:type
         rdf:resource="http://purl.org/dc/dcmitype/StillImage" /><dc:title></dc:title></cc:Work></rdf:RDF></metadata><defs
   id="defs38" /><sodipodi:namedview
   pagecolor="#ffffff"
   bordercolor="#666666"
   borderopacity="1"
   objecttolerance="10"
   gridtolerance="10"
   guidetolerance="10"
   inkscape:pageopacity="0"
   inkscape:pageshadow="2"
   inkscape:window-width="640"
   inkscape:window-height="480"
   id="namedview36"
   showgrid="false"
   inkscape:current-layer="Layer_1" />
<style
   type="text/css"
   id="style2">
	.st0{fill:#42D8CD;}
	.st1{opacity:0.1;fill:#2D2E83;}
	.st2{fill:#808080;}
	.st3{fill:url(#SVGID_1_);}
	.st4{opacity:0.4;}
	.st5{fill:#FFFFFF;}
	.st6{opacity:0.3;fill:#42210B;}
</style>


<g
   id="g17"
   transform="matrix(0.36159826,0,0,0.36159826,-61.046724,-29.499186)">
	<path
   class="st2"
   d="m 393.98,810.88 c -3.03,-32.91 -17.71,-66.06 -31.91,-98.11 -13.65,-30.83 -26.55,-59.95 -30.64,-90.05 -4.69,-34.55 3.5,-65.01 25.05,-93.12 0,0 0,-0.01 0.01,-0.01 -0.05,-0.06 -0.11,-0.14 -0.21,-0.22 -0.4,-0.36 -0.97,-0.56 -1.57,-0.56 -0.72,0 -1.41,0.3 -1.77,0.77 -21.76,28.38 -29.86,57.42 -25.5,91.4 3.93,30.61 17.63,61.56 30.89,91.49 14.65,33.07 28.48,64.3 31.67,96.89 1.76,17.99 0.09,34.53 -5.12,50.58 -5.72,17.63 -15.53,34.12 -29.97,50.43 -0.03,0.03 -0.05,0.06 -0.07,0.08 0.03,0.04 0.07,0.08 0.11,0.13 0.4,0.41 1.02,0.65 1.66,0.65 0.68,0 1.32,-0.26 1.71,-0.7 27.72,-31.28 39.04,-62.94 35.66,-99.65 z"
   id="path8"
   inkscape:connector-curvature="0"
   style="fill:#808080" />
	<radialGradient
   id="SVGID_1_"
   cx="192.3851"
   cy="96.408501"
   r="495.88489"
   gradientUnits="userSpaceOnUse">
		<stop
   offset="0"
   style="stop-color:#96C0FF"
   id="stop10" />
		<stop
   offset="1"
   style="stop-color:#1573B1"
   id="stop12" />
	</radialGradient>
	<path
   class="st3"
   d="m 354.57,81.58 c -127.89,0 -201.81,78.43 -182.78,221.92 16.93,127.7 167.17,215.93 181.68,222.96 l -8.75,14.69 c -0.59,1 0.33,2.21 1.45,1.91 L 370,536.64 c 1.12,-0.3 1.31,-1.81 0.29,-2.38 l -14.31,-7.95 C 372.22,518.23 520.53,430.33 537.35,303.5 556.38,160.01 482.47,81.58 354.57,81.58 Z"
   id="path15"
   style="fill:url(#SVGID_1_)"
   inkscape:connector-curvature="0" />
</g>
<g
   class="st4"
   id="g23"
   transform="matrix(0.36159826,0,0,0.36159826,-61.046724,-29.499186)"
   style="opacity:0.4">
	
		<ellipse
   transform="matrix(0.4537,-0.8912,0.8912,0.4537,-29.95,305.0096)"
   class="st5"
   cx="233.8"
   cy="176.92999"
   rx="49.700001"
   ry="32.950001"
   id="ellipse19"
   style="fill:#ffffff" />
	<path
   class="st5"
   d="m 213.54,248.81 c -3.49,10.52 -11.99,17.18 -18.97,14.88 -6.98,-2.3 -9.82,-12.7 -6.32,-23.22 3.49,-10.52 11.99,-17.18 18.97,-14.88 6.98,2.3 9.81,12.7 6.32,23.22 z"
   id="path21"
   inkscape:connector-curvature="0"
   style="fill:#ffffff" />
</g>

<g
   id="g33"
   transform="matrix(0.36159826,0,0,0.36159826,-61.046724,-29.499186)">
	<path
   class="st5"
   d="m 304.74,358.75 -2.14,-1.66 c -3.31,-5.65 -11.58,-21.97 -24.61,-48.53 -16.29,-33.21 -19.54,-41.04 -19.96,-42.66 0.08,-9.66 5.58,-25.53 16.35,-47.16 11.94,-23.79 18.62,-41.1 20.41,-52.92 0.17,-1.1 -0.29,-2.19 -1.18,-2.85 l -3.88,-2.87 c -0.64,-0.48 -1.45,-0.68 -2.24,-0.55 -3.85,0.59 -6.76,4.55 -9.44,12.82 -0.77,2.41 -1.63,5.3 -2.55,8.59 -0.9,3.21 -1.68,5.85 -2.34,7.86 -0.44,1.34 -2.38,6.15 -9.16,21.41 -5.48,12.34 -10.59,24.13 -15.19,35.05 -6.32,15.02 -7.13,19.38 -7.13,21.5 0,3.38 1.93,7.52 6.06,13.01 4.67,6.2 5.66,8.36 5.88,8.99 0.02,0.05 0.03,0.09 0.05,0.14 0.71,1.83 1.85,4.29 3.5,7.53 1.92,3.78 2.71,5.43 3.04,6.14 0.01,0.02 0.02,0.03 0.02,0.05 l 14.66,30.61 c 1.04,2.19 3.35,7.33 6.86,15.29 3.6,8.18 7.03,14.68 10.18,19.31 0.56,0.82 1.48,1.31 2.47,1.31 h 0.35 l 3.66,0.54 c 0.15,0.02 0.29,0.03 0.44,0.03 1.98,0 3.68,-1.16 5.07,-3.45 1.01,-1.67 1.63,-3.18 1.89,-4.61 0.24,-1.12 -0.18,-2.24 -1.07,-2.92 z"
   id="path27"
   inkscape:connector-curvature="0"
   style="fill:#ffffff" />
	<path
   class="st5"
   d="m 378.93,157.91 c -3.38,0 -4.84,3.96 -5.39,5.45 0,0.01 -0.01,0.02 -0.01,0.03 -0.38,1.06 -0.75,2.12 -1.09,3.13 -0.36,1.07 -0.68,2.15 -0.94,3.21 -0.16,0.65 -1.85,6.79 -9.03,32.35 -5.78,20.58 -12.15,45.28 -18.93,73.41 -6.77,28.1 -11.29,46.19 -13.41,53.78 -2.17,7.74 -3.78,14.24 -4.79,19.3 -1.05,5.26 -1.57,9.41 -1.57,12.68 0,5.17 2.35,7.68 4.32,8.87 0.47,0.28 1.01,0.43 1.55,0.43 0.07,0 0.15,0 0.23,-0.01 2.49,-0.19 5.87,-1.46 7.87,-6.44 0.01,-0.02 0.01,-0.04 0.02,-0.06 0.59,-1.57 1.08,-3.01 1.44,-4.26 0.36,-1.25 0.73,-2.85 1.14,-4.88 0.47,-2.38 0.7,-3.24 0.79,-3.53 0.02,-0.05 0.03,-0.11 0.05,-0.16 l 5.89,-23.93 c 19.65,-80.71 30.24,-124.33 31.48,-129.64 1.24,-5.3 2.83,-11.69 4.73,-19.01 2.63,-10.16 2.97,-12.88 2.97,-14.12 -0.01,-3.18 -1.93,-6.6 -7.32,-6.6 z"
   id="path29"
   inkscape:connector-curvature="0"
   style="fill:#ffffff" />
	<path
   class="st5"
   d="m 435.96,188.8 c -0.65,-2 -1.44,-4.66 -2.33,-7.92 -0.91,-3.31 -1.71,-6.15 -2.38,-8.45 -0.01,-0.02 -0.01,-0.05 -0.02,-0.07 -2.52,-7.89 -5.51,-11.96 -9.41,-12.8 -0.86,-0.18 -1.76,0.02 -2.45,0.55 l -3.74,2.87 c -0.86,0.66 -1.3,1.74 -1.13,2.82 1.79,11.83 8.46,29.14 20.4,52.91 10.77,21.64 16.27,37.51 16.36,47.17 -0.42,1.61 -3.65,9.33 -19.81,41.93 -12.97,26.18 -21.36,42.75 -24.94,49.29 l -2.1,1.63 c -0.88,0.68 -1.31,1.8 -1.11,2.89 0.26,1.46 0.92,2.99 2.01,4.68 1.44,2.25 3.16,3.39 5.11,3.39 0.13,0 0.26,-0.01 0.4,-0.03 l 4.31,-0.57 c 0.85,-0.11 1.62,-0.59 2.09,-1.31 0.46,-0.68 1.59,-2.75 6.39,-12.72 L 448.9,302.6 c 0.03,-0.06 0.06,-0.13 0.08,-0.19 0.24,-0.59 0.93,-2.08 2.89,-5.83 1.7,-3.25 2.88,-5.75 3.6,-7.66 0.32,-0.85 1.53,-3.18 6.01,-9.27 4.02,-5.46 5.97,-10.04 5.97,-13.99 0,-1.79 0,-5.52 -22.25,-55.55 -6.85,-15.19 -8.8,-19.97 -9.24,-21.31 z"
   id="path31"
   inkscape:connector-curvature="0"
   style="fill:#ffffff" />
</g>
</svg>